<mxfile host="app.diagrams.net" modified="2023-05-12T14:23:25.519Z" agent="Mozilla/5.0 (Macintosh; Intel Mac OS X 10_15_7) AppleWebKit/537.36 (KHTML, like Gecko) Chrome/112.0.0.0 Safari/537.36" version="21.2.9" etag="rMQhAD7kk0y0obt0eLzx" type="github">
  <diagram name="Page-1" id="O0G_r-xcLkvV23Vq3-Iy">
    <mxGraphModel>
      <root>
        <mxCell id="0" />
        <mxCell id="1" parent="0" />
      </root>
    </mxGraphModel>
  </diagram>
</mxfile>
